<svg width="18.000977" height="18.000000" viewBox="0 0 18.001 18" fill="none" xmlns="http://www.w3.org/2000/svg" xmlns:xlink="http://www.w3.org/1999/xlink">
	<desc>
			Created with Pixso.
	</desc>
	<defs/>
	<path d="M18 13.42L18 16.95C18 17.2 17.9 17.45 17.73 17.63C17.55 17.82 17.32 17.93 17.07 17.95C16.63 17.98 16.27 18 16 18C7.16 18 0 10.83 0 2C0 1.72 0.01 1.36 0.04 0.93C0.06 0.67 0.17 0.44 0.36 0.26C0.54 0.09 0.79 -0.01 1.04 0L4.58 0C4.7 -0.01 4.82 0.04 4.91 0.12C5 0.21 5.06 0.32 5.07 0.44C5.1 0.68 5.12 0.86 5.14 1C5.34 2.38 5.74 3.73 6.34 5C6.44 5.2 6.38 5.44 6.2 5.56L4.04 7.11C5.36 10.18 7.81 12.63 10.88 13.95L12.42 11.8C12.49 11.71 12.58 11.65 12.68 11.62C12.79 11.59 12.9 11.6 13 11.65C14.26 12.25 15.61 12.66 17 12.85C17.14 12.87 17.32 12.9 17.55 12.92C17.67 12.93 17.78 12.99 17.87 13.08C17.95 13.17 18 13.29 18 13.42L18 13.42Z" fill="#011C40" fill-opacity="1.000000" fill-rule="nonzero"/>
</svg>
