<svg width="18.000000" height="22.000000" viewBox="0 0 18 22" fill="none" xmlns="http://www.w3.org/2000/svg" xmlns:xlink="http://www.w3.org/1999/xlink">
	<desc>
			Created with Pixso.
	</desc>
	<defs/>
	<path d="M15.36 15.55L9 22L2.63 15.55C1.37 14.28 0.52 12.65 0.17 10.89C-0.18 9.12 0 7.29 0.68 5.62C1.36 3.96 2.51 2.53 3.99 1.53C5.47 0.53 7.21 0 9 0C10.78 0 12.52 0.53 14 1.53C15.48 2.53 16.63 3.96 17.31 5.62C17.99 7.29 18.17 9.12 17.82 10.89C17.47 12.65 16.62 14.28 15.36 15.55ZM9 11.13C9.53 11.13 10.03 10.92 10.41 10.54C10.78 10.16 11 9.64 11 9.11C11 8.57 10.78 8.06 10.41 7.68C10.03 7.3 9.53 7.08 9 7.08C8.46 7.08 7.96 7.3 7.58 7.68C7.21 8.06 7 8.57 7 9.11C7 9.64 7.21 10.16 7.58 10.54C7.96 10.92 8.46 11.13 9 11.13Z" fill="#011C40" fill-opacity="1.000000" fill-rule="nonzero"/>
</svg>
