<svg width="70.000000" height="38.000000" viewBox="0 0 70 38" fill="none" xmlns="http://www.w3.org/2000/svg" xmlns:xlink="http://www.w3.org/1999/xlink">
	<desc>
			Created with Pixso.
	</desc>
	<defs/>
	<path id="Vector" d="M0.9 31.12L14.67 12.54L18.43 14.55L27.4 0L32.98 6.65L35.06 4.95L43.11 15.17L48.83 8.36L64.65 30.9C66.3 31.75 67.9 32.78 69.44 34.03C59.96 28.15 46.53 30.67 33.56 33.1C20.34 35.58 7.6 37.97 0 31.29C5.84 35.27 15.35 33.16 26.03 30.78C30.98 29.69 36.17 28.53 41.36 27.9L28.5 4.33L32.72 18.81L26.81 4.72L23.57 14.09L24.21 7.97L16.1 30.04L17.07 20.75L13.69 17.03L0.9 31.12ZM49.42 11.76L64.62 30.88C57.56 27.24 49.61 26.93 41.65 27.87L35.3 13.82L35.45 7.35L49.22 26.32L47.08 19.89L49.42 11.76ZM34.52 34.31C46.35 31.74 59.68 28.84 70 35.41C62.25 31.53 51.58 33.61 41.12 35.65C31.12 37.6 21.32 39.52 14.41 36.17C19.59 37.56 26.73 36.01 34.52 34.31Z" fill="#F9FBFD" fill-opacity="1.000000" fill-rule="evenodd"/>
</svg>
