<svg width="27.000000" height="32.000000" viewBox="0 0 27 32" fill="none" xmlns="http://www.w3.org/2000/svg" xmlns:xlink="http://www.w3.org/1999/xlink">
	<desc>
			Created with Pixso.
	</desc>
	<defs/>
	<path d="M15.74 0L11.38 0L11.38 5.34L15.74 5.34L15.74 0ZM4.4 16.39L13.21 9.93C13.41 9.8 13.67 9.8 13.87 9.93L22.72 16.39L22.72 8.68C22.77 7.63 21.97 6.73 20.93 6.68C20.92 6.68 20.9 6.68 20.89 6.68L6.23 6.68C5.2 6.7 4.38 7.58 4.4 8.64C4.4 8.65 4.4 8.67 4.4 8.68L4.4 16.39ZM27 21.03L24.29 30.16L22.81 31.99L17.12 31.99C17.12 31.99 14.81 32.01 13.52 31.99C12.24 31.99 7.15 31.99 7.15 31.99L4.4 31.99L2.79 30.11L0 21.03L12.69 11.8L12.69 30.56L13.52 30.6L14 30.6L14 11.8L22.94 18.17L23.2 18.31L27 21.03Z" fill="#011C40" fill-opacity="1.000000" fill-rule="evenodd"/>
</svg>
