<svg width="42.000000" height="15.000000" viewBox="0 0 42 15" fill="none" xmlns="http://www.w3.org/2000/svg" xmlns:xlink="http://www.w3.org/1999/xlink">
	<desc>
			Created with Pixso.
	</desc>
	<defs/>
	<path d="M41.39 5.22C41.59 5.24 41.77 5.35 41.88 5.51C42 5.67 42.02 5.87 41.96 6.06L40.47 10.57C40.42 10.72 40.27 10.81 40.1 10.8L0.55 6.64C0.41 6.63 0.28 6.53 0.25 6.4C0.08 5.8 0 5.19 0 4.56C0 4.37 0.08 4.2 0.23 4.07C0.37 3.95 0.57 3.89 0.77 3.91L10.39 4.87C10.52 4.88 10.64 4.83 10.72 4.74C11.33 3.93 14.13 0.27 14.13 0.27C14.26 0.09 14.49 -0.01 14.73 6.1e-5L29.43 0.65C29.68 0.66 29.91 0.8 30.02 1.01C30.13 1.21 30.12 1.47 29.98 1.66L28.75 3.37C28.72 3.42 28.7 3.49 28.7 3.55L28.7 6.41C28.7 6.57 28.83 6.71 29.01 6.73L31.81 7.01C32.01 7.03 32.2 6.88 32.2 6.69L32.2 5.68C32.2 5.51 32.07 5.38 31.89 5.35L30.7 5.21C30.32 5.16 30.05 4.83 30.1 4.47C30.15 4.12 30.51 3.87 30.89 3.91L41.39 5.22ZM19.65 5.46L20.2 1.9C20.23 1.71 20.07 1.54 19.87 1.53L15.23 1.32C15.11 1.32 15 1.37 14.93 1.46L12.53 4.6C12.37 4.8 12.51 5.08 12.77 5.11C12.77 5.11 17.91 5.61 19.27 5.74C19.46 5.76 19.62 5.64 19.65 5.46ZM27.35 2.98L27.78 2.38C27.94 2.16 27.78 1.88 27.51 1.87L21.97 1.62C21.79 1.62 21.63 1.74 21.61 1.9L21.04 5.6C21.02 5.78 21.16 5.95 21.35 5.97L26.91 6.52C27.11 6.54 27.3 6.39 27.3 6.2L27.3 3.16C27.3 3.09 27.32 3.03 27.35 2.98ZM36.01 7.43C36.21 7.45 36.4 7.3 36.4 7.1L36.4 6.2C36.4 6.04 36.26 5.9 36.09 5.88L33.99 5.61C33.78 5.59 33.6 5.74 33.6 5.94L33.6 6.88C33.6 7.05 33.73 7.19 33.9 7.2C34.55 7.28 36.01 7.43 36.01 7.43ZM40 7.56L40.26 6.78C40.32 6.58 40.19 6.38 39.97 6.36L38.19 6.14C37.98 6.11 37.8 6.26 37.8 6.46L37.8 7.31C37.8 7.48 37.93 7.62 38.11 7.64L39.63 7.79C39.8 7.81 39.95 7.71 40 7.56ZM1.57 8.06L39.55 12.05C39.77 12.07 39.91 12.28 39.85 12.47L39.09 14.76C39.04 14.9 38.91 15 38.75 15L16.1 15C9.41 15 3.66 12.34 1.23 8.56C1.08 8.33 1.28 8.03 1.57 8.06Z" fill="#011C40" fill-opacity="1.000000" fill-rule="evenodd"/>
</svg>
